<?xml version="1.0" encoding="UTF-8" standalone="no"?>
<!-- Created with Inkscape (http://www.inkscape.org/) -->

<svg
   width="256"
   height="256"
   viewBox="0 0 67.733332 67.733335"
   version="1.1"
   id="svg8"
   enable-background="new"
   xmlns:xlink="http://www.w3.org/1999/xlink"
   xmlns="http://www.w3.org/2000/svg"
   xmlns:svg="http://www.w3.org/2000/svg"
   xmlns:rdf="http://www.w3.org/1999/02/22-rdf-syntax-ns#"
   xmlns:cc="http://creativecommons.org/ns#"
   xmlns:dc="http://purl.org/dc/elements/1.1/">
  <defs
     id="defs2">
    <linearGradient
       id="linearGradient1530">
      <stop
         id="stop1526"
         offset="0"
         style="stop-color:#c5c6c0;stop-opacity:0" />
      <stop
         id="stop1528"
         offset="1"
         style="stop-color:#a8a8a8;stop-opacity:1" />
    </linearGradient>
    <linearGradient
       id="linearGradient1508">
      <stop
         style="stop-color:#c5c6c0;stop-opacity:0"
         offset="0"
         id="stop1504" />
      <stop
         style="stop-color:#ececec;stop-opacity:0.608"
         offset="1"
         id="stop1506" />
    </linearGradient>
    <linearGradient
       id="linearGradient971">
      <stop
         style="stop-color:#ffffff;stop-opacity:1"
         offset="0"
         id="stop967" />
      <stop
         style="stop-color:#e8e8e8;stop-opacity:1"
         offset="1"
         id="stop969" />
    </linearGradient>
    <linearGradient
       id="linearGradient961">
      <stop
         id="stop957"
         offset="0"
         style="stop-color:#ffffff;stop-opacity:1" />
      <stop
         id="stop959"
         offset="1"
         style="stop-color:#a6a6a6;stop-opacity:1" />
    </linearGradient>
    <linearGradient
       id="linearGradient915-7">
      <stop
         style="stop-color:#f6f6f6;stop-opacity:1"
         offset="0"
         id="stop911" />
      <stop
         style="stop-color:#bfbfbf;stop-opacity:1"
         offset="1"
         id="stop913" />
    </linearGradient>
    <linearGradient
       id="linearGradient1259">
      <stop
         style="stop-color:#000000;stop-opacity:1;"
         offset="0"
         id="stop1255" />
      <stop
         style="stop-color:#1e1e1e;stop-opacity:1"
         offset="1"
         id="stop1257" />
    </linearGradient>
    <linearGradient
       id="linearGradient1173">
      <stop
         id="stop1171"
         offset="0"
         style="stop-color:#e2e3dc;stop-opacity:1" />
      <stop
         id="stop1169"
         offset="1"
         style="stop-color:#9b9d98;stop-opacity:1" />
    </linearGradient>
    <linearGradient
       id="linearGradient1117">
      <stop
         style="stop-color:#eccf1b;stop-opacity:1"
         offset="0"
         id="stop1113" />
      <stop
         style="stop-color:#fbfa5e;stop-opacity:0.98492461"
         offset="1"
         id="stop1115" />
    </linearGradient>
    <linearGradient
       id="linearGradient905">
      <stop
         style="stop-color:#2955e6;stop-opacity:1"
         offset="0"
         id="stop901" />
      <stop
         style="stop-color:#2995e6;stop-opacity:1"
         offset="1"
         id="stop903" />
    </linearGradient>
    <linearGradient
       id="linearGradient911-0">
      <stop
         style="stop-color:#2905e6;stop-opacity:1"
         offset="0"
         id="stop907" />
      <stop
         style="stop-color:#29abe6;stop-opacity:0.00392157"
         offset="1"
         id="stop909" />
    </linearGradient>
    <linearGradient
       xlink:href="#linearGradient905"
       id="linearGradient1062"
       gradientUnits="userSpaceOnUse"
       x1="33.325169"
       y1="0.69322425"
       x2="33.325169"
       y2="64.420303"
       gradientTransform="matrix(1.032294,0,0,1.032294,-1.067301,229.31072)" />
    <radialGradient
       xlink:href="#linearGradient911-0"
       id="radialGradient1088"
       cx="127.9996"
       cy="304.60641"
       fx="127.9996"
       fy="304.60641"
       r="116.00012"
       gradientTransform="matrix(1.183629,0,0,0.2566257,-117.61109,217.06013)"
       gradientUnits="userSpaceOnUse" />
    <radialGradient
       xlink:href="#linearGradient1117"
       id="radialGradient1119"
       cx="19.716091"
       cy="25.122902"
       fx="19.716091"
       fy="25.122902"
       r="5.8131023"
       gradientTransform="matrix(0.92977641,-0.66482969,1.562985,2.1858632,-34.843927,-12.198306)"
       gradientUnits="userSpaceOnUse" />
    <radialGradient
       xlink:href="#linearGradient1117"
       id="radialGradient1123"
       gradientUnits="userSpaceOnUse"
       gradientTransform="matrix(-0.92977641,-0.66482969,-1.562985,2.1858632,102.66194,-12.201521)"
       cx="19.716091"
       cy="25.122902"
       fx="19.716091"
       fy="25.122902"
       r="5.8131023" />
    <radialGradient
       xlink:href="#linearGradient1173"
       id="radialGradient1175"
       cx="34.113384"
       cy="53.753208"
       fx="34.113384"
       fy="53.753208"
       r="15.754322"
       gradientTransform="matrix(-2.3257621,0,0,-0.93663057,113.41875,106.06786)"
       gradientUnits="userSpaceOnUse" />
    <radialGradient
       xlink:href="#linearGradient1259"
       id="radialGradient1261"
       cx="128.06515"
       cy="178.46519"
       fx="128.06515"
       fy="178.46519"
       r="68.448152"
       gradientTransform="matrix(0.27312781,0,0,0.15261429,-1.067301,21.55153)"
       gradientUnits="userSpaceOnUse" />
    <radialGradient
       xlink:href="#linearGradient911-0"
       id="radialGradient1337"
       gradientUnits="userSpaceOnUse"
       gradientTransform="matrix(1.183629,0,0,0.2566257,-117.61109,217.06013)"
       cx="127.9996"
       cy="304.60641"
       fx="127.9996"
       fy="304.60641"
       r="116.00012" />
    <radialGradient
       xlink:href="#linearGradient911-0"
       id="radialGradient1339"
       gradientUnits="userSpaceOnUse"
       gradientTransform="matrix(1.183629,0,0,0.2566257,-117.61109,217.06013)"
       cx="127.9996"
       cy="304.60641"
       fx="127.9996"
       fy="304.60641"
       r="116.00012" />
    <radialGradient
       xlink:href="#linearGradient911-0"
       id="radialGradient1341"
       gradientUnits="userSpaceOnUse"
       gradientTransform="matrix(1.183629,0,0,0.2566257,-117.61109,217.06013)"
       cx="127.9996"
       cy="304.60641"
       fx="127.9996"
       fy="304.60641"
       r="116.00012" />
    <linearGradient
       xlink:href="#linearGradient905"
       id="linearGradient1343"
       gradientUnits="userSpaceOnUse"
       gradientTransform="matrix(1.032294,0,0,1.032294,-1.067301,229.31072)"
       x1="33.325169"
       y1="0.69322425"
       x2="33.325169"
       y2="64.420303" />
    <linearGradient
       xlink:href="#linearGradient905"
       id="linearGradient1345"
       gradientUnits="userSpaceOnUse"
       gradientTransform="matrix(1.032294,0,0,1.032294,-1.067301,229.31072)"
       x1="33.325169"
       y1="0.69322425"
       x2="33.325169"
       y2="64.420303" />
    <linearGradient
       xlink:href="#linearGradient905"
       id="linearGradient1347"
       gradientUnits="userSpaceOnUse"
       gradientTransform="matrix(1.032294,0,0,1.032294,-1.067301,229.31072)"
       x1="33.325169"
       y1="0.69322425"
       x2="33.325169"
       y2="64.420303" />
    <linearGradient
       xlink:href="#linearGradient915-7"
       id="linearGradient1081"
       gradientUnits="userSpaceOnUse"
       x1="33.894333"
       y1="56.698769"
       x2="33.89312"
       y2="58.023151" />
    <linearGradient
       xlink:href="#linearGradient961"
       id="linearGradient875"
       gradientUnits="userSpaceOnUse"
       x1="33.89312"
       y1="58.023151"
       x2="34.005867"
       y2="58.082897"
       gradientTransform="translate(33.302537,-57.606757)" />
    <filter
       style="color-interpolation-filters:sRGB"
       id="filter953"
       x="-0.24548197"
       width="1.4909639"
       y="-0.16584777"
       height="1.3316955">
      <feGaussianBlur
         stdDeviation="0.13531341"
         id="feGaussianBlur955" />
    </filter>
    <linearGradient
       xlink:href="#linearGradient971"
       id="linearGradient965"
       gradientUnits="userSpaceOnUse"
       gradientTransform="translate(33.302537,-57.606757)"
       x1="33.89312"
       y1="58.023151"
       x2="34.174023"
       y2="58.182526" />
    <radialGradient
       xlink:href="#linearGradient1508"
       id="radialGradient1510"
       cx="61.931412"
       cy="43.889988"
       fx="61.931412"
       fy="43.889988"
       r="1.0407226"
       gradientTransform="matrix(-0.99693086,0.00171448,-0.00343952,-1.999997,123.82371,131.56365)"
       gradientUnits="userSpaceOnUse" />
    <filter
       style="color-interpolation-filters:sRGB"
       id="filter1518"
       x="-0.201303"
       width="1.402606"
       y="-0.17893352"
       height="1.357867">
      <feGaussianBlur
         stdDeviation="0.15518347"
         id="feGaussianBlur1520" />
    </filter>
    <radialGradient
       xlink:href="#linearGradient1530"
       id="radialGradient1524"
       gradientUnits="userSpaceOnUse"
       gradientTransform="matrix(-0.99693086,0.00171448,-0.00343952,-1.999997,123.82371,131.56365)"
       cx="61.931412"
       cy="43.889988"
       fx="61.931412"
       fy="43.889988"
       r="1.0407226" />
    <radialGradient
       xlink:href="#linearGradient1508"
       id="radialGradient2128"
       gradientUnits="userSpaceOnUse"
       gradientTransform="matrix(-0.99693086,0.00171448,-0.00343952,-1.999997,123.82371,131.56365)"
       cx="61.931412"
       cy="43.889988"
       fx="61.931412"
       fy="43.889988"
       r="1.0407226" />
    <radialGradient
       xlink:href="#linearGradient1530"
       id="radialGradient2130"
       gradientUnits="userSpaceOnUse"
       gradientTransform="matrix(-0.99693086,0.00171448,-0.00343952,-1.999997,123.82371,131.56365)"
       cx="61.931412"
       cy="43.889988"
       fx="61.931412"
       fy="43.889988"
       r="1.0407226" />
  </defs>
  <metadata
     id="metadata5">
    <rdf:RDF>
      <cc:Work
         rdf:about="">
        <dc:format>image/svg+xml</dc:format>
        <dc:type
           rdf:resource="http://purl.org/dc/dcmitype/StillImage" />
      </cc:Work>
    </rdf:RDF>
  </metadata>
  <g
     id="layer13"
     style="display:inline">
    <g
       id="g1402"
       transform="translate(-0.02645116,-1.1377356)">
      <path
         id="path1293"
         transform="matrix(0.2731276,0,0,0.2731276,-1.0673028,0.04406803)"
         d="m 128.01367,16.169922 c -26.13169,0.0077 -45.847679,20.575226 -59.533201,42.697266 -7.832223,-1.714261 -13.991217,-1.569299 -15.921875,-0.09766 -3.474577,4.24949 -2.48695,16.353602 0.884765,29.642578 -5.78016,13.793084 -8.658203,24.072264 -8.658203,24.072274 0,0 -5.369203,24.37494 -16.949218,41.05468 -3.255138,4.68867 -5.391664,6.67018 -8.265626,9.4336 -3.973006,3.82018 -6.65839,7.79998 -7.40625,14.7832 -2.8187985,26.32089 30.878774,47.24816 77.658204,54.64453 16.245224,5.95841 36.146034,7.43054 38.146484,7.42969 2.01771,-8.6e-4 22.1944,-1.49819 38.47461,-7.58594 46.36238,-7.50705 79.92186,-28.21315 77.42578,-54.35547 -1.12604,-6.93229 -3.43324,-10.96302 -7.40625,-14.7832 -2.87396,-2.76342 -5.01049,-4.74493 -8.26562,-9.43359 -11.58002,-16.67976 -18.07422,-41.18752 -18.07422,-41.1875 0,0 -2.58624,-9.65055 -7.85743,-22.798836 3.64594,-13.804354 4.82037,-26.578226 1.23047,-30.96875 -1.96885,-1.500756 -8.34657,-1.610812 -16.40039,0.212891 C 173.66584,36.775281 154.17577,16.162226 128.01367,16.169922 Z"
         style="display:inline;fill:none;fill-opacity:1;stroke:#ffffff;stroke-width:16;stroke-linecap:butt;stroke-linejoin:miter;stroke-miterlimit:4;stroke-dasharray:none;stroke-opacity:1" />
      <path
         id="path1233"
         d="m 13.527965,253.45212 c 1.09e-4,-2.6e-4 4.38e-4,-2.7e-4 5.47e-4,-5.5e-4 -0.229898,-0.90677 -0.4193,-1.79322 -0.559058,-2.63098 -0.139758,-0.83778 -0.23005,-1.6267 -0.261926,-2.33867 0.06362,1.42407 0.360648,3.15664 0.82045,4.97019 z"
         style="display:inline;opacity:1;fill:url(#linearGradient1062);fill-opacity:1;stroke:none;stroke-width:2.18502212;stroke-linecap:round;stroke-linejoin:round;stroke-miterlimit:2.5;stroke-dasharray:none;stroke-opacity:1;paint-order:stroke fill markers"
         transform="translate(0,-229.26665)" />
      <path
         id="path1231"
         d="m 5.8819876,272.07815 c 0.2121953,-0.26346 0.405109,-0.47314 0.6540131,-0.83166 0.3953531,-0.56945 0.7641378,-1.17168 1.1069143,-1.78972 0.3427765,-0.61804 0.6595105,-1.25177 0.9506128,-1.88415 0.5822048,-1.26479 1.06207,-2.52444 1.4429892,-3.64135 0.38092,-1.11692 0.66294,-2.09145 0.849791,-2.78677 -0.560705,2.08598 -1.9787228,6.68522 -4.3508407,10.10199 -0.248815,0.35839 -0.4414117,0.56821 -0.6534797,0.83166 z"
         style="display:inline;opacity:1;fill:url(#linearGradient1347);fill-opacity:1;stroke:none;stroke-width:2.18502212;stroke-linecap:round;stroke-linejoin:round;stroke-miterlimit:2.5;stroke-dasharray:none;stroke-opacity:1;paint-order:stroke fill markers"
         transform="translate(0,-229.26665)" />
      <path
         id="path1229"
         d="m 2.2550424,279.3822 c -0.045012,-0.49977 -0.054695,-1.00572 5.463e-4,-1.52142 0.051065,-0.47683 0.1352651,-0.90235 0.2496557,-1.28882 0.1143909,-0.38647 0.2588273,-0.73374 0.4310299,-1.0541 -0.3445382,0.64058 -0.5790884,1.38927 -0.6812193,2.34292 -0.055232,0.51574 -0.04506,1.02165 0,1.52142 z"
         style="display:inline;opacity:1;fill:url(#linearGradient1345);fill-opacity:1;stroke:none;stroke-width:2.18502212;stroke-linecap:round;stroke-linejoin:round;stroke-miterlimit:2.5;stroke-dasharray:none;stroke-opacity:1;paint-order:stroke fill markers"
         transform="translate(0,-229.26665)" />
      <path
         id="rect913"
         d="m 33.896789,233.72717 c -1.784143,5.2e-4 -3.459346,0.35177 -5.026722,0.97302 -1.56738,0.62125 -3.02717,1.51225 -4.380715,2.59204 -2.707093,2.1596 -4.989224,5.07438 -6.858602,8.09515 -2.136453,-0.46687 -3.815995,-0.42665 -4.342838,-0.0251 -0.474225,0.57999 -0.644015,1.69557 -0.580397,3.11963 0.03187,0.71197 0.122168,1.50089 0.261925,2.33867 0.139758,0.83776 0.329161,1.72421 0.559058,2.63099 -1.07e-4,2.5e-4 -4.36e-4,2.7e-4 -5.46e-4,5.4e-4 -1.582073,3.77394 -2.363196,6.5812 -2.363196,6.5812 0,0 -0.09156,0.41586 -0.278461,1.11118 -0.186851,0.69532 -0.468871,1.66985 -0.84979,2.78677 -0.3809203,1.11692 -0.8607855,2.37656 -1.44299,3.64135 -0.2911023,0.63238 -0.6078364,1.26612 -0.9506128,1.88415 -0.3427765,0.61804 -0.7115613,1.22027 -1.1069143,1.78972 -0.2489041,0.35852 -0.4418177,0.5682 -0.6540132,0.83167 -0.5456966,0.67793 -1.0388118,1.20137 -1.6040924,1.74492 -0.5425688,0.5217 -0.9970953,1.05419 -1.3416334,1.69478 -0.1722026,0.32036 -0.316639,0.66763 -0.4310299,1.0541 -0.1143906,0.38647 -0.1985907,0.812 -0.2496557,1.28882 -0.055228,0.5157 -0.045546,1.02165 -5.463e-4,1.52142 0.01397,0.15494 0.046033,0.30651 0.069349,0.45982 0.052708,0.34683 0.1247247,0.68994 0.22405,1.02797 0.049044,0.16677 0.1026021,0.33266 0.1627031,0.49717 0.1217587,0.33353 0.2698789,0.6614 0.4358311,0.98529 0.07326,0.14289 0.1370781,0.28798 0.2187155,0.4289 0.2612757,0.45131 0.5547494,0.89489 0.8988677,1.32509 0.027653,0.0346 0.06305,0.067 0.091221,0.10137 0.3238351,0.39575 0.6855355,0.78126 1.0759742,1.15759 0.147108,0.14167 0.3095024,0.27836 0.4657041,0.41716 0.296418,0.26359 0.6058964,0.52276 0.9340758,0.77564 0.1960603,0.15094 0.3963254,0.30005 0.6033349,0.44702 0.2087726,0.14836 0.4354504,0.29002 0.6550801,0.43423 1.7640233,1.1573 3.8661795,2.17982 6.2456635,3.04175 0.203732,0.0739 0.406354,0.14831 0.614004,0.21978 1.210728,0.41641 2.477022,0.79844 3.809921,1.1304 0.112542,0.028 0.231265,0.051 0.344609,0.0784 1.293375,0.31268 2.640834,0.58191 4.029168,0.80978 0.350069,0.0575 0.687453,0.12741 1.042901,0.17924 1.011286,0.14746 2.04388,0.2719 3.09456,0.37235 1.050677,0.10046 2.119461,0.17701 3.203384,0.22832 1.083923,0.0513 2.183052,0.0774 3.29407,0.0774 1.111018,0 2.210582,-0.0259 3.295673,-0.0768 1.085087,-0.051 2.155808,-0.12689 3.208715,-0.22672 1.052907,-0.0998 2.088087,-0.22362 3.102562,-0.37022 0.481421,-0.0696 0.941387,-0.16083 1.413115,-0.24058 1.401902,-0.23703 2.769322,-0.50922 4.073979,-0.8322 0.04314,-0.0107 0.08928,-0.0186 0.132299,-0.0293 1.33227,-0.33351 2.593491,-0.72066 3.804581,-1.13786 0.213354,-0.0736 0.424499,-0.14856 0.633744,-0.22458 1.17976,-0.42845 2.309029,-0.88698 3.347416,-1.39072 0.06255,-0.0304 0.117232,-0.0643 0.179238,-0.0949 0.972633,-0.48012 1.861382,-0.99894 2.690738,-1.5406 0.206467,-0.13496 0.422892,-0.26579 0.619871,-0.40436 0.203382,-0.14298 0.397521,-0.28908 0.590532,-0.43584 0.327581,-0.24923 0.638486,-0.50416 0.935143,-0.76389 0.164904,-0.1443 0.333066,-0.28788 0.48811,-0.4353 0.35178,-0.33478 0.674975,-0.67819 0.974084,-1.02851 0.06473,-0.0758 0.141589,-0.14812 0.20378,-0.22458 0.347286,-0.42729 0.647919,-0.86716 0.91327,-1.31549 0.08047,-0.1359 0.142314,-0.27622 0.214979,-0.41396 0.172054,-0.32633 0.326391,-0.6565 0.453437,-0.99276 0.06212,-0.16431 0.116972,-0.33005 0.168038,-0.49664 0.103234,-0.33704 0.179535,-0.67939 0.236318,-1.0253 0.02518,-0.1534 0.05833,-0.3053 0.07415,-0.46037 0.05084,-0.49868 0.0673,-1.00331 0.01814,-1.5182 -0.230665,-1.42006 -0.642579,-2.39416 -1.292024,-3.23273 -0.21648,-0.27952 -0.459546,-0.54413 -0.73083,-0.80498 -0.392382,-0.37729 -0.734263,-0.70131 -1.08931,-1.09091 -0.355219,-0.38978 -0.723619,-0.8452 -1.16826,-1.48567 -1.581413,-2.27784 -2.815363,-5.09046 -3.654152,-7.33336 -0.838789,-2.24291 -1.28242,-3.91609 -1.28242,-3.91609 0,0 -0.700938,-2.63487 -2.144482,-6.23392 0.994371,-3.7677 1.314375,-7.25306 0.334475,-8.45149 -0.537228,-0.4095 -2.27629,-0.44006 -4.473,0.0566 -1.84e-4,4e-5 -2.73e-4,-4e-5 -5.46e-4,0 -0.917247,-1.51256 -1.938025,-2.999 -3.06522,-4.37751 -0.563597,-0.68925 -1.154069,-1.35123 -1.771062,-1.97644 -3.084935,-3.1261 -6.841076,-5.32465 -11.306492,-5.32334 z"
         style="display:inline;opacity:1;fill:url(#linearGradient1343);fill-opacity:1;stroke:none;stroke-width:2.18502212;stroke-linecap:round;stroke-linejoin:round;stroke-miterlimit:2.5;stroke-dasharray:none;stroke-opacity:1;paint-order:stroke fill markers"
         transform="translate(0,-229.26665)" />
      <path
         id="path1224"
         d="m 2.2550424,279.3822 c -0.045012,-0.49977 -0.054695,-1.00572 5.463e-4,-1.52142 0.051065,-0.47683 0.1352651,-0.90235 0.2496557,-1.28882 0.1143909,-0.38647 0.2588273,-0.73374 0.4310299,-1.0541 -0.3445382,0.64058 -0.5790884,1.38927 -0.6812193,2.34292 -0.055232,0.51574 -0.04506,1.02165 0,1.52142 z"
         style="display:inline;opacity:1;fill:url(#radialGradient1088);fill-opacity:1;stroke:none;stroke-width:2.18502212;stroke-linecap:round;stroke-linejoin:round;stroke-miterlimit:2.5;stroke-dasharray:none;stroke-opacity:1;paint-order:stroke fill markers"
         transform="translate(0,-229.26665)" />
      <path
         id="path1220"
         d="m 58.866111,266.92234 c 0.107372,0.23507 0.174747,0.44442 0.288597,0.68068 0.305557,0.63409 0.634081,1.2694 0.98529,1.88842 0.345228,0.60848 0.713147,1.20004 1.101046,1.76093 -0.928926,-1.3437 -1.696257,-2.84397 -2.374933,-4.33003 z"
         style="display:inline;opacity:1;fill:url(#radialGradient1341);fill-opacity:1;stroke:none;stroke-width:2.18502212;stroke-linecap:round;stroke-linejoin:round;stroke-miterlimit:2.5;stroke-dasharray:none;stroke-opacity:1;paint-order:stroke fill markers"
         transform="translate(0,-229.26665)" />
      <path
         id="path1218"
         d="m 8.839983,266.9506 a 190.19349,190.19367 0 0 0 -5.462e-4,0 c -0.6408644,1.47396 -1.3782127,2.96242 -2.303982,4.29589 -0.248815,0.35839 -0.4414117,0.56821 -0.6534799,0.83166 0.2121956,-0.26346 0.4051092,-0.47314 0.6540132,-0.83166 0.3953531,-0.56945 0.7641379,-1.17168 1.1069144,-1.78972 0.3427764,-0.61804 0.6595104,-1.25177 0.9506128,-1.88415 0.09945,-0.21605 0.1529666,-0.40698 0.2464552,-0.62202 z"
         style="display:inline;opacity:1;fill:url(#radialGradient1339);fill-opacity:1;stroke:none;stroke-width:2.18502212;stroke-linecap:round;stroke-linejoin:round;stroke-miterlimit:2.5;stroke-dasharray:none;stroke-opacity:1;paint-order:stroke fill markers"
         transform="translate(0,-229.26665)" />
      <path
         id="path1082"
         d="m 8.839983,266.9506 c -0.093489,0.21504 -0.1470063,0.40597 -0.2464552,0.62202 -0.2911023,0.63238 -0.6078363,1.26611 -0.9506128,1.88415 -0.3427765,0.61804 -0.7115612,1.22027 -1.1069143,1.78972 -0.2489041,0.35852 -0.4418178,0.5682 -0.6540131,0.83166 -0.5456965,0.67793 -1.0388119,1.20138 -1.6040925,1.74493 -0.5425689,0.5217 -0.9970953,1.05419 -1.3416335,1.69478 -0.1722023,0.32036 -0.316639,0.66763 -0.4310297,1.0541 -0.1143906,0.38647 -0.1985906,0.81199 -0.2496558,1.28882 -0.055228,0.5157 -0.045546,1.02165 -5.462e-4,1.52142 0.01397,0.15494 0.046033,0.30651 0.069349,0.45982 0.052708,0.34683 0.1247246,0.68994 0.2240499,1.02797 0.049045,0.16677 0.1026021,0.33266 0.1627031,0.49717 0.1217587,0.33352 0.2698789,0.6614 0.435831,0.98529 0.07326,0.14289 0.1370783,0.28798 0.2187157,0.42889 0.2612755,0.45131 0.5547492,0.8949 0.8988676,1.3251 0.027653,0.0345 0.06305,0.067 0.09122,0.10137 0.323835,0.39575 0.6855355,0.78125 1.075974,1.15759 0.147108,0.14167 0.3095024,0.27836 0.4657042,0.41716 0.2964179,0.26359 0.6058964,0.52276 0.9340758,0.77564 0.1960604,0.15093 0.3963253,0.30004 0.6033349,0.44702 0.2087726,0.14835 0.4354504,0.29002 0.6550801,0.43423 1.7640225,1.1573 3.8661798,2.17982 6.2456638,3.04175 0.203733,0.0738 0.406353,0.14831 0.614004,0.21978 1.210728,0.41641 2.477022,0.79843 3.80992,1.1304 0.112543,0.028 0.231266,0.051 0.34461,0.0784 1.293375,0.31269 2.640834,0.58192 4.029168,0.80979 0.350068,0.0575 0.687453,0.12741 1.0429,0.17924 1.011285,0.14746 2.043881,0.2719 3.094559,0.37235 1.050677,0.10046 2.119461,0.17701 3.203383,0.22832 1.083924,0.0513 2.183053,0.0773 3.294071,0.0773 1.111018,0 2.210582,-0.0259 3.295673,-0.0768 1.085087,-0.051 2.155808,-0.12689 3.208715,-0.22671 1.052907,-0.0998 2.088087,-0.22362 3.102562,-0.37022 0.481421,-0.0696 0.941387,-0.16083 1.413115,-0.24058 1.401902,-0.23703 2.769321,-0.50922 4.07398,-0.8322 0.04314,-0.0106 0.08927,-0.0186 0.132298,-0.0293 1.332271,-0.33351 2.593491,-0.72066 3.804582,-1.13786 0.213354,-0.0736 0.424499,-0.14856 0.633744,-0.22458 1.179759,-0.42845 2.309029,-0.88698 3.347416,-1.39072 0.06255,-0.0304 0.117232,-0.0643 0.179237,-0.095 0.972633,-0.48012 1.861383,-0.99894 2.690739,-1.54061 0.206467,-0.13495 0.422891,-0.26578 0.61987,-0.40435 0.203383,-0.14298 0.397522,-0.28909 0.590533,-0.43584 0.327581,-0.24923 0.638486,-0.50416 0.935144,-0.76389 0.164903,-0.14431 0.333065,-0.28788 0.488109,-0.4353 0.35178,-0.33478 0.674975,-0.67818 0.974083,-1.02851 0.06473,-0.0758 0.141589,-0.14812 0.203781,-0.22458 0.347286,-0.4273 0.647919,-0.86716 0.91327,-1.3155 0.08047,-0.13589 0.142314,-0.27622 0.214979,-0.41395 0.172054,-0.32633 0.326391,-0.6565 0.453437,-0.99276 0.06212,-0.16431 0.116972,-0.33005 0.168037,-0.49664 0.103234,-0.33704 0.179536,-0.67939 0.236318,-1.0253 0.02518,-0.1534 0.05833,-0.3053 0.07415,-0.46037 0.05084,-0.49867 0.0673,-1.00332 0.01814,-1.51821 -0.230665,-1.42005 -0.642579,-2.39415 -1.292024,-3.23273 -0.21648,-0.27951 -0.459546,-0.54412 -0.73083,-0.80497 -0.392381,-0.37729 -0.734263,-0.70131 -1.08931,-1.09091 -0.355219,-0.38978 -0.72362,-0.84521 -1.16826,-1.48567 -0.0067,-0.01 -0.01196,-0.0207 -0.01868,-0.0304 -0.387899,-0.56089 -0.755818,-1.15245 -1.101046,-1.76093 -0.35121,-0.61902 -0.679733,-1.25433 -0.985289,-1.88842 -0.113851,-0.23626 -0.181227,-0.44561 -0.288599,-0.68068 -2.73e-4,-8.2e-4 -8.19e-4,-10e-4 -0.0011,-0.002 a 190.19349,190.19367 0 0 0 -5.984219,-0.90415 190.19349,190.19367 0 0 0 -18.987715,-0.95007 190.19349,190.19367 0 0 0 -13.453678,0.47638 190.19349,190.19367 0 0 0 -11.5993957,1.4083 z"
         style="display:inline;opacity:1;fill:url(#radialGradient1337);fill-opacity:1;stroke:none;stroke-width:2.18502212;stroke-linecap:round;stroke-linejoin:round;stroke-miterlimit:2.5;stroke-dasharray:none;stroke-opacity:1;paint-order:stroke fill markers"
         transform="translate(0,-229.26665)" />
      <path
         id="path1121"
         d="m 42.299122,25.441643 c 2.901261,-4.993411 11.850338,-8.542422 11.850338,-8.542422 0.453687,1.223772 -0.187771,5.758502 -0.93201,8.515133 -0.53142,1.968352 -2.484958,5.588951 -2.484958,5.588951 0,0 -0.962177,-0.09006 -4.507491,-2.271921 -3.545314,-2.181863 -3.925879,-3.289741 -3.925879,-3.289741 z"
         style="display:inline;fill:url(#radialGradient1123);fill-opacity:1;stroke:none;stroke-width:0.01369558px;stroke-linecap:butt;stroke-linejoin:miter;stroke-opacity:1" />
      <path
         style="display:inline;fill:url(#radialGradient1119);fill-opacity:1;stroke:none;stroke-width:0.01369558px;stroke-linecap:butt;stroke-linejoin:miter;stroke-opacity:1"
         d="m 25.518894,25.444859 c -2.901261,-4.993412 -11.850338,-8.542422 -11.850338,-8.542422 -0.453688,1.223771 0.187771,5.758501 0.932011,8.515132 0.531421,1.968352 2.484957,5.588951 2.484957,5.588951 0,0 0.962177,-0.09006 4.507492,-2.271922 3.545314,-2.18186 3.925878,-3.289739 3.925878,-3.289739 z"
         id="path1092" />
      <path
         id="path1472-6"
         d="m 15.910898,38.341701 c 0,0 -6.1353882,20.819438 18.04884,20.892142 24.18423,0.0727 17.915476,-20.892142 17.915476,-20.892142 0,0 -9.415578,15.981708 -17.842925,15.981708 -8.427348,0 -18.121391,-15.981708 -18.121391,-15.981708 z"
         style="display:inline;fill:url(#radialGradient1261);fill-opacity:1;stroke:none;stroke-width:0.01369558px;stroke-linecap:butt;stroke-linejoin:miter;stroke-opacity:1" />
      <path
         id="path1472-9"
         d="m 24.880906,49.531937 a 3.7997473,2.5697067 69.797163 0 0 -0.08589,2.530166 3.7997473,2.5697067 69.797163 0 0 3.481845,3.399162 3.7997473,2.5697067 69.797163 0 0 1.823874,-2.153549 c -0.325709,-0.158092 -0.650183,-0.33437 -0.974083,-0.522784 a 2.5871102,1.666134 72.543623 0 1 -1.189068,1.62543 2.5871102,1.666134 72.543623 0 1 -2.243168,-2.329052 2.5871102,1.666134 72.543623 0 1 0.06348,-1.758796 C 25.462221,50.065552 25.16986,49.802172 24.8809,49.531937 Z"
         style="display:inline;fill:#ff0000;fill-opacity:1;stroke:none;stroke-width:0.01369558px;stroke-linecap:butt;stroke-linejoin:miter;stroke-opacity:1" />
      <path
         id="ellipse852-0"
         d="m 42.912675,49.709044 c -0.290078,0.271535 -0.583204,0.537174 -0.880197,0.794309 a 1.666134,2.5871102 17.456377 0 1 0.0043,1.577957 1.666134,2.5871102 17.456377 0 1 -2.242635,2.329052 1.666134,2.5871102 17.456377 0 1 -1.17093,-1.458458 c -0.321577,0.179781 -0.644644,0.345599 -0.968215,0.493976 a 2.5697067,3.7997473 20.202837 0 0 1.799335,2.015385 2.5697067,3.7997473 20.202837 0 0 3.481847,-3.399162 2.5697067,3.7997473 20.202837 0 0 -0.02346,-2.353059 z"
         style="display:inline;opacity:1;fill:#ff0000;fill-opacity:1;stroke:none;stroke-width:0.18068904;stroke-linecap:round;stroke-linejoin:round;stroke-miterlimit:2.5;stroke-dasharray:none;stroke-opacity:1;paint-order:stroke fill markers" />
      <path
         id="path834-7"
         d="m 50.04183,58.520814 c 0.918329,-5.420303 -5.67186,-0.916409 -8.496984,-1.435855 -2.552279,-0.469279 -4.990484,-1.497621 -7.635719,-1.518194 -2.645234,0.02057 -5.141783,1.046559 -7.722469,1.518194 -2.825681,0.516409 -9.415316,-3.984448 -8.496984,1.435855 1.005298,5.933599 15.291059,7.028004 16.19482,7.027619 0.903764,-3.82e-4 15.15204,-1.09402 16.157336,-7.027619 z"
         style="display:inline;fill:url(#radialGradient1175);fill-opacity:1;stroke:none;stroke-width:0.01369558px;stroke-linecap:butt;stroke-linejoin:miter;stroke-opacity:1" />
      <circle
         r="1.3229166"
         cy="58.023151"
         cx="33.89312"
         id="circle1075"
         style="opacity:1;fill:url(#linearGradient1081);fill-opacity:1;stroke:none;stroke-width:5.35904312;stroke-linecap:round;stroke-linejoin:round;stroke-miterlimit:4;stroke-dasharray:none;stroke-opacity:1;paint-order:stroke fill markers" />
      <path
         style="opacity:1;fill:url(#linearGradient875);fill-opacity:1;stroke:none;stroke-width:5.35904312;stroke-linecap:round;stroke-linejoin:round;stroke-miterlimit:4;stroke-dasharray:none;stroke-opacity:1;paint-order:stroke fill markers;filter:url(#filter953)"
         id="circle873"
         transform="rotate(59.354433)"
         d="m 68.354423,-0.22185914 a 1.3229166,1.3229166 0 0 1 0.0023,1.27224624 1.3229166,1.3229166 0 0 1 -1.071528,0.6858879 l -0.08957,-1.31988062 z" />
      <path
         d="m 68.354423,-0.22185914 a 1.3229166,1.3229166 0 0 1 0.0023,1.27224624 1.3229166,1.3229166 0 0 1 -1.071528,0.6858879 l -0.08957,-1.31988062 z"
         transform="rotate(-120.64557,66.958367,38.708714)"
         id="path963"
         style="opacity:1;fill:url(#linearGradient965);fill-opacity:1;stroke:none;stroke-width:5.35904312;stroke-linecap:round;stroke-linejoin:round;stroke-miterlimit:4;stroke-dasharray:none;stroke-opacity:1;paint-order:stroke fill markers;filter:url(#filter953)" />
      <g
         id="g2116">
        <rect
           y="58.420021"
           x="47.271114"
           height="0.13229166"
           width="2.1745443"
           id="rect2107"
           style="opacity:1;fill:#aeb1a9;fill-opacity:1;stroke:none;stroke-width:0.03185209;stroke-linecap:round;stroke-linejoin:round;stroke-miterlimit:4;stroke-dasharray:none;stroke-opacity:1;paint-order:stroke fill markers" />
        <ellipse
           transform="rotate(15.098535)"
           ry="2.0814452"
           rx="1.0407226"
           cy="43.889988"
           cx="61.931412"
           id="path1461"
           style="opacity:1;fill:none;fill-opacity:1;stroke:#aeb1a9;stroke-width:0.06614583;stroke-linecap:round;stroke-linejoin:round;stroke-miterlimit:4;stroke-dasharray:none;stroke-opacity:1;paint-order:stroke fill markers" />
        <path
           d="m 60.989667,43.004053 a 1.0407226,2.0814452 0 0 1 0.905273,-1.194232 1.0407226,2.0814452 0 0 1 0.944875,1.064475 l -0.908403,1.015692 z"
           style="opacity:1;fill:url(#radialGradient1510);fill-opacity:1;stroke:none;stroke-width:0.06614583;stroke-linecap:round;stroke-linejoin:round;stroke-miterlimit:4;stroke-dasharray:none;stroke-opacity:1;paint-order:stroke fill markers;filter:url(#filter1518)"
           id="ellipse1502"
           transform="rotate(15.098535)" />
        <path
           transform="rotate(-164.90147,56.114786,52.097595)"
           id="path1522"
           style="opacity:1;fill:url(#radialGradient1524);fill-opacity:1;stroke:none;stroke-width:0.06614583;stroke-linecap:round;stroke-linejoin:round;stroke-miterlimit:4;stroke-dasharray:none;stroke-opacity:1;paint-order:stroke fill markers;filter:url(#filter1518)"
           d="m 60.989667,43.004053 a 1.0407226,2.0814452 0 0 1 0.905273,-1.194232 1.0407226,2.0814452 0 0 1 0.944875,1.064475 l -0.908403,1.015692 z" />
      </g>
      <g
         id="g2126"
         transform="matrix(-1,0,0,1,67.786154,0)">
        <rect
           style="opacity:1;fill:#aeb1a9;fill-opacity:1;stroke:none;stroke-width:0.03185209;stroke-linecap:round;stroke-linejoin:round;stroke-miterlimit:4;stroke-dasharray:none;stroke-opacity:1;paint-order:stroke fill markers"
           id="rect2118"
           width="2.1745443"
           height="0.13229166"
           x="47.271114"
           y="58.420021" />
        <ellipse
           style="opacity:1;fill:none;fill-opacity:1;stroke:#aeb1a9;stroke-width:0.06614583;stroke-linecap:round;stroke-linejoin:round;stroke-miterlimit:4;stroke-dasharray:none;stroke-opacity:1;paint-order:stroke fill markers"
           id="ellipse2120"
           cx="61.931412"
           cy="43.889988"
           rx="1.0407226"
           ry="2.0814452"
           transform="rotate(15.098535)" />
        <path
           transform="rotate(15.098535)"
           id="path2122"
           style="opacity:1;fill:url(#radialGradient2128);fill-opacity:1;stroke:none;stroke-width:0.06614583;stroke-linecap:round;stroke-linejoin:round;stroke-miterlimit:4;stroke-dasharray:none;stroke-opacity:1;paint-order:stroke fill markers;filter:url(#filter1518)"
           d="m 60.989667,43.004053 a 1.0407226,2.0814452 0 0 1 0.905273,-1.194232 1.0407226,2.0814452 0 0 1 0.944875,1.064475 l -0.908403,1.015692 z" />
        <path
           d="m 60.989667,43.004053 a 1.0407226,2.0814452 0 0 1 0.905273,-1.194232 1.0407226,2.0814452 0 0 1 0.944875,1.064475 l -0.908403,1.015692 z"
           style="opacity:1;fill:url(#radialGradient2130);fill-opacity:1;stroke:none;stroke-width:0.06614583;stroke-linecap:round;stroke-linejoin:round;stroke-miterlimit:4;stroke-dasharray:none;stroke-opacity:1;paint-order:stroke fill markers;filter:url(#filter1518)"
           id="path2124"
           transform="rotate(-164.90147,56.114786,52.097595)" />
      </g>
    </g>
  </g>
</svg>
