<?xml version="1.0" encoding="UTF-8" standalone="no"?>
<!-- Created with Inkscape (http://www.inkscape.org/) -->

<svg
   width="500.99997"
   height="91"
   viewBox="0 0 132.55623 24.077085"
   version="1.1"
   id="svg8"
   inkscape:version="1.4.2 (f4327f4, 2025-05-13)"
   sodipodi:docname="logo.svg"
   style="enable-background:new"
   inkscape:export-filename="logo.png"
   inkscape:export-xdpi="96"
   inkscape:export-ydpi="96"
   xmlns:inkscape="http://www.inkscape.org/namespaces/inkscape"
   xmlns:sodipodi="http://sodipodi.sourceforge.net/DTD/sodipodi-0.dtd"
   xmlns:xlink="http://www.w3.org/1999/xlink"
   xmlns="http://www.w3.org/2000/svg"
   xmlns:svg="http://www.w3.org/2000/svg"
   xmlns:rdf="http://www.w3.org/1999/02/22-rdf-syntax-ns#"
   xmlns:cc="http://creativecommons.org/ns#"
   xmlns:dc="http://purl.org/dc/elements/1.1/">
  <defs
     id="defs2">
    <linearGradient
       id="linearGradient1792"
       inkscape:collect="always">
      <stop
         id="stop1788"
         offset="0"
         style="stop-color:#0072dc;stop-opacity:1" />
      <stop
         id="stop1790"
         offset="1"
         style="stop-color:#0054a0;stop-opacity:1" />
    </linearGradient>
    <linearGradient
       id="linearGradient1786"
       inkscape:collect="always">
      <stop
         id="stop1782"
         offset="0"
         style="stop-color:#6d019f;stop-opacity:1" />
      <stop
         id="stop1784"
         offset="1"
         style="stop-color:#9601db;stop-opacity:1" />
    </linearGradient>
    <linearGradient
       inkscape:collect="always"
       id="linearGradient1607">
      <stop
         style="stop-color:#bd2dff;stop-opacity:1"
         offset="0"
         id="stop1603" />
      <stop
         style="stop-color:#9700dc;stop-opacity:1"
         offset="1"
         id="stop1605" />
    </linearGradient>
    <linearGradient
       inkscape:collect="always"
       id="linearGradient1555">
      <stop
         style="stop-color:#0072dc;stop-opacity:1"
         offset="0"
         id="stop1551" />
      <stop
         style="stop-color:#41a3ff;stop-opacity:1"
         offset="1"
         id="stop1553" />
    </linearGradient>
    <linearGradient
       id="linearGradient3254"
       inkscape:swatch="solid">
      <stop
         style="stop-color:#bd2dff;stop-opacity:1;"
         offset="0"
         id="stop3252" />
    </linearGradient>
    <linearGradient
       inkscape:collect="always"
       xlink:href="#linearGradient1555"
       id="linearGradient1557"
       x1="51.329166"
       y1="15.610416"
       x2="51.329166"
       y2="10.318749"
       gradientUnits="userSpaceOnUse" />
    <linearGradient
       inkscape:collect="always"
       xlink:href="#linearGradient1607"
       id="linearGradient1609"
       x1="104.24583"
       y1="20.902082"
       x2="104.24583"
       y2="26.19375"
       gradientUnits="userSpaceOnUse" />
    <linearGradient
       inkscape:collect="always"
       xlink:href="#linearGradient1555"
       id="linearGradient1663"
       gradientUnits="userSpaceOnUse"
       x1="51.329166"
       y1="15.610416"
       x2="51.329166"
       y2="10.318749" />
    <linearGradient
       inkscape:collect="always"
       xlink:href="#linearGradient1555"
       id="linearGradient1665"
       gradientUnits="userSpaceOnUse"
       x1="51.329166"
       y1="15.610416"
       x2="51.329166"
       y2="10.318749" />
    <linearGradient
       inkscape:collect="always"
       xlink:href="#linearGradient1555"
       id="linearGradient1667"
       gradientUnits="userSpaceOnUse"
       x1="51.329166"
       y1="15.610416"
       x2="51.329166"
       y2="10.318749" />
    <linearGradient
       inkscape:collect="always"
       xlink:href="#linearGradient1555"
       id="linearGradient1669"
       gradientUnits="userSpaceOnUse"
       x1="51.329166"
       y1="15.610416"
       x2="51.329166"
       y2="10.318749" />
    <linearGradient
       inkscape:collect="always"
       xlink:href="#linearGradient1555"
       id="linearGradient1671"
       gradientUnits="userSpaceOnUse"
       x1="51.329166"
       y1="15.610416"
       x2="51.329166"
       y2="10.318749" />
    <linearGradient
       inkscape:collect="always"
       xlink:href="#linearGradient1555"
       id="linearGradient1673"
       gradientUnits="userSpaceOnUse"
       x1="51.329166"
       y1="15.610416"
       x2="51.329166"
       y2="10.318749" />
    <linearGradient
       inkscape:collect="always"
       xlink:href="#linearGradient1555"
       id="linearGradient1675"
       gradientUnits="userSpaceOnUse"
       x1="51.329166"
       y1="15.610416"
       x2="51.329166"
       y2="10.318749" />
    <linearGradient
       inkscape:collect="always"
       xlink:href="#linearGradient1555"
       id="linearGradient1677"
       gradientUnits="userSpaceOnUse"
       x1="51.329166"
       y1="15.610416"
       x2="51.329166"
       y2="10.318749" />
    <linearGradient
       inkscape:collect="always"
       xlink:href="#linearGradient1555"
       id="linearGradient1679"
       gradientUnits="userSpaceOnUse"
       x1="51.329166"
       y1="15.610416"
       x2="51.329166"
       y2="10.318749" />
    <linearGradient
       inkscape:collect="always"
       xlink:href="#linearGradient1555"
       id="linearGradient1681"
       gradientUnits="userSpaceOnUse"
       x1="51.329166"
       y1="15.610416"
       x2="51.329166"
       y2="10.318749" />
    <linearGradient
       inkscape:collect="always"
       xlink:href="#linearGradient1607"
       id="linearGradient1683"
       gradientUnits="userSpaceOnUse"
       x1="104.24583"
       y1="20.902082"
       x2="104.24583"
       y2="26.19375" />
    <linearGradient
       inkscape:collect="always"
       xlink:href="#linearGradient1607"
       id="linearGradient1685"
       gradientUnits="userSpaceOnUse"
       x1="104.24583"
       y1="20.902082"
       x2="104.24583"
       y2="26.19375" />
    <linearGradient
       inkscape:collect="always"
       xlink:href="#linearGradient1607"
       id="linearGradient1687"
       gradientUnits="userSpaceOnUse"
       x1="104.24583"
       y1="20.902082"
       x2="104.24583"
       y2="26.19375" />
    <linearGradient
       inkscape:collect="always"
       xlink:href="#linearGradient1607"
       id="linearGradient1689"
       gradientUnits="userSpaceOnUse"
       x1="104.24583"
       y1="20.902082"
       x2="104.24583"
       y2="26.19375" />
    <linearGradient
       inkscape:collect="always"
       xlink:href="#linearGradient1607"
       id="linearGradient1691"
       gradientUnits="userSpaceOnUse"
       x1="104.24583"
       y1="20.902082"
       x2="104.24583"
       y2="26.19375" />
    <linearGradient
       inkscape:collect="always"
       xlink:href="#linearGradient1607"
       id="linearGradient1693"
       gradientUnits="userSpaceOnUse"
       x1="104.24583"
       y1="20.902082"
       x2="104.24583"
       y2="26.19375" />
    <linearGradient
       inkscape:collect="always"
       xlink:href="#linearGradient1607"
       id="linearGradient1695"
       gradientUnits="userSpaceOnUse"
       x1="104.24583"
       y1="20.902082"
       x2="104.24583"
       y2="26.19375" />
    <linearGradient
       inkscape:collect="always"
       xlink:href="#linearGradient1607"
       id="linearGradient1697"
       gradientUnits="userSpaceOnUse"
       x1="104.24583"
       y1="20.902082"
       x2="104.24583"
       y2="26.19375" />
    <linearGradient
       inkscape:collect="always"
       xlink:href="#linearGradient1607"
       id="linearGradient1699"
       gradientUnits="userSpaceOnUse"
       x1="104.24583"
       y1="20.902082"
       x2="104.24583"
       y2="26.19375" />
    <linearGradient
       inkscape:collect="always"
       xlink:href="#linearGradient1607"
       id="linearGradient1701"
       gradientUnits="userSpaceOnUse"
       x1="104.24583"
       y1="20.902082"
       x2="104.24583"
       y2="26.19375" />
    <linearGradient
       inkscape:collect="always"
       xlink:href="#linearGradient1607"
       id="linearGradient1703"
       gradientUnits="userSpaceOnUse"
       x1="104.24583"
       y1="20.902082"
       x2="104.24583"
       y2="26.19375" />
    <linearGradient
       inkscape:collect="always"
       xlink:href="#linearGradient1607"
       id="linearGradient1705"
       gradientUnits="userSpaceOnUse"
       x1="104.24583"
       y1="20.902082"
       x2="104.24583"
       y2="26.19375" />
    <linearGradient
       inkscape:collect="always"
       xlink:href="#linearGradient1607"
       id="linearGradient1707"
       gradientUnits="userSpaceOnUse"
       x1="104.24583"
       y1="20.902082"
       x2="104.24583"
       y2="26.19375" />
    <linearGradient
       inkscape:collect="always"
       xlink:href="#linearGradient1792"
       id="linearGradient1709"
       gradientUnits="userSpaceOnUse"
       x1="51.329163"
       y1="17.727081"
       x2="51.329163"
       y2="13.967105"
       gradientTransform="matrix(3.7795279,0,0,3.7795279,10,-16.999999)" />
    <linearGradient
       inkscape:collect="always"
       xlink:href="#linearGradient1786"
       id="linearGradient1727"
       gradientUnits="userSpaceOnUse"
       x1="66.145828"
       y1="23.998533"
       x2="66.145828"
       y2="28.310415"
       gradientTransform="matrix(3.7795278,0,0,3.7795278,10,-16.999999)" />
  </defs>
  <sodipodi:namedview
     id="base"
     pagecolor="#000000"
     bordercolor="#666666"
     borderopacity="1.0"
     inkscape:pageopacity="0"
     inkscape:pageshadow="2"
     inkscape:zoom="4.1178805"
     inkscape:cx="334.63817"
     inkscape:cy="34.48376"
     inkscape:document-units="px"
     inkscape:current-layer="g1661"
     showgrid="false"
     units="px"
     inkscape:pagecheckerboard="true"
     inkscape:window-width="1920"
     inkscape:window-height="991"
     inkscape:window-x="-9"
     inkscape:window-y="-9"
     inkscape:window-maximized="1"
     fit-margin-top="1"
     fit-margin-left="1"
     fit-margin-right="1"
     fit-margin-bottom="1"
     width="536px"
     inkscape:showpageshadow="2"
     inkscape:deskcolor="#d1d1d1">
    <inkscape:grid
       type="xygrid"
       id="grid3788"
       originx="-1.4493624e-07"
       originy="-2.6458334"
       spacingy="1"
       spacingx="1"
       units="px" />
  </sodipodi:namedview>
  <metadata
     id="metadata5">
    <rdf:RDF>
      <cc:Work
         rdf:about="">
        <dc:format>image/svg+xml</dc:format>
        <dc:type
           rdf:resource="http://purl.org/dc/dcmitype/StillImage" />
      </cc:Work>
    </rdf:RDF>
  </metadata>
  <g
     inkscape:groupmode="layer"
     id="layer3"
     inkscape:label="main text"
     style="display:inline"
     transform="translate(0.26458241,-9.5249991)">
    <g
       aria-label="ONE-CLICK"
       style="font-style:normal;font-variant:normal;font-weight:normal;font-stretch:normal;font-size:2.11667px;line-height:6.61458px;font-family:'Press Start 2P';-inkscape-font-specification:'Press Start 2P';font-variant-ligatures:normal;font-variant-caps:normal;font-variant-numeric:normal;font-feature-settings:normal;text-align:center;letter-spacing:0px;word-spacing:0px;writing-mode:lr-tb;text-anchor:middle;fill:url(#linearGradient1681);fill-opacity:1;stroke:#ffffff;stroke-width:0.846667;stroke-linecap:square;stroke-linejoin:miter;stroke-miterlimit:4;stroke-dasharray:none;stroke-opacity:1;paint-order:markers stroke fill"
       id="text1543"
       transform="matrix(1.25,0,0,1.2499999,-0.13229166,-2.579686)">
      <path
         d="M 16.404167,10.847916 V 10.318749 H 19.05 21.695833 v 0.529167 0.529167 H 22.225 22.754166 v 2.645833 2.645833 H 22.225 21.695833 v 0.529167 0.529166 H 19.05 16.404167 V 17.197916 16.668749 H 15.875 15.345833 V 14.022916 11.377083 H 15.875 16.404167 Z m 4.233333,3.175 V 11.377083 H 19.05 17.4625 v 2.645833 2.645833 h 1.5875 1.5875 z"
         style="font-size:8.46667px;fill:url(#linearGradient1663);fill-opacity:1;stroke:#ffffff;stroke-width:0.846667;stroke-linecap:square;stroke-linejoin:miter;stroke-miterlimit:4;stroke-dasharray:none;stroke-opacity:1;paint-order:markers stroke fill"
         id="path1559"
         inkscape:connector-curvature="0" />
      <path
         d="m 23.8125,14.022916 v -3.704167 h 1.058333 1.058333 v 0.529167 0.529167 h 0.529167 0.529166 v 0.529166 0.529167 h 0.529167 0.529167 v 0.529167 0.529166 h 0.529166 0.529167 v -1.5875 -1.5875 h 1.058333 1.058333 v 3.704167 3.704166 h -1.058333 -1.058333 v -0.529166 -0.529167 h -0.529167 -0.529166 v -0.529167 -0.529166 h -0.529167 -0.529167 v -0.529167 -0.529166 h -0.529166 -0.529167 v 1.587499 1.5875 H 24.870833 23.8125 Z"
         style="font-size:8.46667px;fill:url(#linearGradient1665);fill-opacity:1;stroke:#ffffff;stroke-width:0.846667;stroke-linecap:square;stroke-linejoin:miter;stroke-miterlimit:4;stroke-dasharray:none;stroke-opacity:1;paint-order:markers stroke fill"
         id="path1561"
         inkscape:connector-curvature="0" />
      <path
         d="m 32.279166,14.022916 v -3.704167 h 3.704166 3.704167 v 0.529167 0.529167 h -2.645834 -2.645833 v 1.058333 1.058333 h 2.116667 2.116666 v 0.529167 0.529167 h -2.116666 -2.116667 v 1.058333 1.058333 h 2.645833 2.645834 v 0.529167 0.529166 h -3.704167 -3.704166 z"
         style="font-size:8.46667px;fill:url(#linearGradient1667);fill-opacity:1;stroke:#ffffff;stroke-width:0.846667;stroke-linecap:square;stroke-linejoin:miter;stroke-miterlimit:4;stroke-dasharray:none;stroke-opacity:1;paint-order:markers stroke fill"
         id="path1563"
         inkscape:connector-curvature="0" />
      <path
         d="m 41.804164,14.022916 v -0.529167 h 3.175 3.175 v 0.529167 0.529167 h -3.175 -3.175 z"
         style="font-size:8.46667px;fill:url(#linearGradient1669);fill-opacity:1;stroke:#ffffff;stroke-width:0.846667;stroke-linecap:square;stroke-linejoin:miter;stroke-miterlimit:4;stroke-dasharray:none;stroke-opacity:1;paint-order:markers stroke fill"
         id="path1565"
         inkscape:connector-curvature="0" />
      <path
         d="m 51.329165,10.847916 v -0.529167 h 2.116666 2.116667 v 0.529167 0.529167 h 0.529166 0.529167 v 0.529166 0.529167 h -1.058333 -1.058333 v -0.529167 -0.529166 h -1.058334 -1.058333 v 0.529166 0.529167 h -0.529167 -0.529166 v 1.5875 1.5875 h 0.529166 0.529167 v 0.529166 0.529167 h 1.058333 1.058334 v -0.529167 -0.529166 h 1.058333 1.058333 v 0.529166 0.529167 h -0.529167 -0.529166 v 0.529167 0.529166 h -2.116667 -2.116666 v -0.529166 -0.529167 h -0.529167 -0.529167 v -0.529167 -0.529166 h -0.529166 -0.529167 v -1.5875 -1.5875 h 0.529167 0.529166 v -0.529167 -0.529166 h 0.529167 0.529167 z"
         style="font-size:8.46667px;fill:url(#linearGradient1671);fill-opacity:1;stroke:#ffffff;stroke-width:0.846667;stroke-linecap:square;stroke-linejoin:miter;stroke-miterlimit:4;stroke-dasharray:none;stroke-opacity:1;paint-order:markers stroke fill"
         id="path1567"
         inkscape:connector-curvature="0" />
      <path
         d="m 58.737499,14.022916 v -3.704167 h 1.058333 1.058333 v 3.175 3.175 h 2.116667 2.116666 v 0.529167 0.529166 h -3.175 -3.174999 z"
         style="font-size:8.46667px;fill:url(#linearGradient1673);fill-opacity:1;stroke:#ffffff;stroke-width:0.846667;stroke-linecap:square;stroke-linejoin:miter;stroke-miterlimit:4;stroke-dasharray:none;stroke-opacity:1;paint-order:markers stroke fill"
         id="path1569"
         inkscape:connector-curvature="0" />
      <path
         d="m 67.204162,10.847916 v -0.529167 h 3.175 3.175 v 0.529167 0.529167 h -1.058334 -1.058333 v 2.645833 2.645833 h 1.058333 1.058334 v 0.529167 0.529166 h -3.175 -3.175 v -0.529166 -0.529167 h 1.058333 1.058334 v -2.645833 -2.645833 h -1.058334 -1.058333 z"
         style="font-size:8.46667px;fill:url(#linearGradient1675);fill-opacity:1;stroke:#ffffff;stroke-width:0.846667;stroke-linecap:square;stroke-linejoin:miter;stroke-miterlimit:4;stroke-dasharray:none;stroke-opacity:1;paint-order:markers stroke fill"
         id="path1571"
         inkscape:connector-curvature="0" />
      <path
         d="m 76.729162,10.847916 v -0.529167 h 2.116667 2.116667 v 0.529167 0.529167 h 0.529166 0.529167 v 0.529166 0.529167 h -1.058333 -1.058334 v -0.529167 -0.529166 h -1.058333 -1.058333 v 0.529166 0.529167 h -0.529167 -0.529167 v 1.5875 1.5875 h 0.529167 0.529167 v 0.529166 0.529167 h 1.058333 1.058333 v -0.529167 -0.529166 h 1.058334 1.058333 v 0.529166 0.529167 h -0.529167 -0.529166 v 0.529167 0.529166 h -2.116667 -2.116667 v -0.529166 -0.529167 h -0.529166 -0.529167 v -0.529167 -0.529166 h -0.529166 -0.529167 v -1.5875 -1.5875 h 0.529167 0.529166 v -0.529167 -0.529166 h 0.529167 0.529166 z"
         style="font-size:8.46667px;fill:url(#linearGradient1677);fill-opacity:1;stroke:#ffffff;stroke-width:0.846667;stroke-linecap:square;stroke-linejoin:miter;stroke-miterlimit:4;stroke-dasharray:none;stroke-opacity:1;paint-order:markers stroke fill"
         id="path1573"
         inkscape:connector-curvature="0" />
      <path
         d="m 83.079163,14.022916 v -3.704167 h 1.058333 1.058334 v 1.5875 1.5875 h 0.529166 0.529167 v -0.529166 -0.529167 h 0.529167 0.529166 v -0.529167 -0.529166 h 0.529167 0.529166 v -0.529167 -0.529167 h 1.058334 1.058333 v 0.529167 0.529167 h -0.529167 -0.529166 v 0.529166 0.529167 h -0.529167 -0.529167 v 0.529167 0.529166 h -0.529166 -0.529167 v 0.529167 0.529167 h 0.529167 0.529166 v 0.529166 0.529167 h 0.529167 0.529167 v 0.529166 0.529167 h 0.529166 0.529167 v 0.529167 0.529166 h -1.5875 -1.5875 V 17.197916 16.668749 H 86.78333 86.254163 V 16.139582 15.610416 H 85.724996 85.19583 v 1.058333 1.058333 h -1.058334 -1.058333 z"
         style="font-size:8.46667px;fill:url(#linearGradient1679);fill-opacity:1;stroke:#ffffff;stroke-width:0.846667;stroke-linecap:square;stroke-linejoin:miter;stroke-miterlimit:4;stroke-dasharray:none;stroke-opacity:1;paint-order:markers stroke fill"
         id="path1575"
         inkscape:connector-curvature="0" />
    </g>
    <g
       aria-label="MOD INSTALLER"
       style="font-style:normal;font-variant:normal;font-weight:normal;font-stretch:normal;font-size:8.46667px;line-height:6.61458px;font-family:'Press Start 2P';-inkscape-font-specification:'Press Start 2P';font-variant-ligatures:normal;font-variant-caps:normal;font-variant-numeric:normal;font-feature-settings:normal;text-align:center;letter-spacing:0px;word-spacing:0px;writing-mode:lr-tb;text-anchor:middle;fill:url(#linearGradient1707);fill-opacity:1;stroke:#ffffff;stroke-width:0.846667;stroke-linecap:square;stroke-linejoin:miter;stroke-miterlimit:4;stroke-dasharray:none;stroke-opacity:1;paint-order:markers stroke fill"
       id="text1547"
       transform="matrix(1.25,0,0,1.2499999,-0.13229166,-2.579686)">
      <path
         d="M 0.52916741,24.60625 V 20.902083 H 1.5875007 2.645834 v 0.529167 0.529167 h 0.5291666 0.5291666 v 0.529166 0.529167 H 4.2333339 4.7625005 V 22.489583 21.960417 H 5.2916672 5.8208338 V 21.43125 20.902083 h 1.0583333 1.0583333 v 3.704167 3.704166 H 6.8791671 5.8208338 v -1.5875 -1.587499 H 5.2916672 4.7625005 v 0.529166 0.529167 H 4.2333339 3.7041672 V 25.664583 25.135417 H 3.1750006 2.645834 v 1.587499 1.5875 H 1.5875007 0.52916741 Z"
         style="fill:url(#linearGradient1683);fill-opacity:1;stroke:#ffffff;stroke-width:0.846667;stroke-linecap:square;stroke-linejoin:miter;stroke-miterlimit:4;stroke-dasharray:none;stroke-opacity:1;paint-order:markers stroke fill"
         id="path1578"
         inkscape:connector-curvature="0" />
      <path
         d="M 10.054167,21.43125 V 20.902083 H 12.7 15.345833 v 0.529167 0.529167 H 15.875 16.404167 v 2.645833 2.645833 H 15.875 15.345833 v 0.529167 0.529166 H 12.7 10.054167 V 27.78125 27.252083 H 9.5250003 8.9958336 V 24.60625 21.960417 h 0.5291667 0.5291667 z m 4.233333,3.175 V 21.960417 H 12.7 11.1125 v 2.645833 2.645833 H 12.7 14.2875 Z"
         style="fill:url(#linearGradient1685);fill-opacity:1;stroke:#ffffff;stroke-width:0.846667;stroke-linecap:square;stroke-linejoin:miter;stroke-miterlimit:4;stroke-dasharray:none;stroke-opacity:1;paint-order:markers stroke fill"
         id="path1580"
         inkscape:connector-curvature="0" />
      <path
         d="m 17.4625,24.60625 v -3.704167 h 2.645833 2.645833 v 0.529167 0.529167 h 0.529167 0.529167 v 0.529166 0.529167 h 0.529166 0.529167 v 1.5875 1.5875 H 24.341666 23.8125 v 0.529166 0.529167 h -0.529167 -0.529167 v 0.529167 0.529166 H 20.108333 17.4625 Z m 4.233333,-2.116667 V 21.960417 H 20.6375 19.579166 v 2.645833 2.645833 H 20.6375 21.695833 V 26.722916 26.19375 H 22.225 22.754166 v -1.5875 -1.5875 H 22.225 21.695833 Z"
         style="fill:url(#linearGradient1687);fill-opacity:1;stroke:#ffffff;stroke-width:0.846667;stroke-linecap:square;stroke-linejoin:miter;stroke-miterlimit:4;stroke-dasharray:none;stroke-opacity:1;paint-order:markers stroke fill"
         id="path1582"
         inkscape:connector-curvature="0" />
      <path
         d="m 31.220832,21.43125 v -0.529167 h 3.175 3.175 v 0.529167 0.529167 h -1.058334 -1.058333 v 2.645833 2.645833 h 1.058333 1.058334 v 0.529167 0.529166 h -3.175 -3.175 V 27.78125 27.252083 h 1.058333 1.058334 V 24.60625 21.960417 h -1.058334 -1.058333 z"
         style="fill:url(#linearGradient1689);fill-opacity:1;stroke:#ffffff;stroke-width:0.846667;stroke-linecap:square;stroke-linejoin:miter;stroke-miterlimit:4;stroke-dasharray:none;stroke-opacity:1;paint-order:markers stroke fill"
         id="path1584"
         inkscape:connector-curvature="0" />
      <path
         d="m 38.629166,24.60625 v -3.704167 h 1.058333 1.058333 v 0.529167 0.529167 h 0.529167 0.529167 v 0.529166 0.529167 h 0.529166 0.529167 v 0.529167 0.529166 h 0.529167 0.529166 v -1.5875 -1.5875 h 1.058334 1.058333 v 3.704167 3.704166 H 44.979166 43.920832 V 27.78125 27.252083 H 43.391666 42.862499 V 26.722916 26.19375 h -0.529167 -0.529166 v -0.529167 -0.529166 h -0.529167 -0.529167 v 1.587499 1.5875 h -1.058333 -1.058333 z"
         style="fill:url(#linearGradient1691);fill-opacity:1;stroke:#ffffff;stroke-width:0.846667;stroke-linecap:square;stroke-linejoin:miter;stroke-miterlimit:4;stroke-dasharray:none;stroke-opacity:1;paint-order:markers stroke fill"
         id="path1586"
         inkscape:connector-curvature="0" />
      <path
         d="m 48.154166,21.43125 v -0.529167 h 2.116667 2.116666 v 0.529167 0.529167 h 0.529167 0.529167 v 0.529166 0.529167 H 52.387499 51.329166 V 22.489583 21.960417 H 50.270833 49.2125 v 1.058333 1.058333 h 2.116666 2.116667 v 0.529167 0.529167 h 0.529166 0.529167 v 1.058333 1.058333 h -0.529167 -0.529166 v 0.529167 0.529166 H 50.8 48.154166 V 27.78125 27.252083 H 47.625 47.095833 V 26.722916 26.19375 h 1.058333 1.058334 v 0.529166 0.529167 H 50.8 52.387499 V 26.19375 25.135417 H 50.270833 48.154166 V 24.60625 24.077083 H 47.625 47.095833 V 23.01875 21.960417 H 47.625 48.154166 Z"
         style="fill:url(#linearGradient1693);fill-opacity:1;stroke:#ffffff;stroke-width:0.846667;stroke-linecap:square;stroke-linejoin:miter;stroke-miterlimit:4;stroke-dasharray:none;stroke-opacity:1;paint-order:markers stroke fill"
         id="path1588"
         inkscape:connector-curvature="0" />
      <path
         d="m 56.62083,21.43125 v -0.529167 h 3.175 3.174999 v 0.529167 0.529167 h -1.058333 -1.058333 v 3.175 3.174999 H 59.79583 58.737496 v -3.174999 -3.175 H 57.679163 56.62083 Z"
         style="fill:url(#linearGradient1695);fill-opacity:1;stroke:#ffffff;stroke-width:0.846667;stroke-linecap:square;stroke-linejoin:miter;stroke-miterlimit:4;stroke-dasharray:none;stroke-opacity:1;paint-order:markers stroke fill"
         id="path1590"
         inkscape:connector-curvature="0" />
      <path
         d="m 66.14583,21.43125 v -0.529167 h 1.5875 1.5875 v 0.529167 0.529167 h 0.529167 0.529166 v 0.529166 0.529167 h 0.529167 0.529167 v 2.645833 2.645833 H 70.379163 69.32083 V 27.252083 26.19375 h -1.5875 -1.5875 v 1.058333 1.058333 H 65.087497 64.029164 V 25.664583 23.01875 h 0.529166 0.529167 v -0.529167 -0.529166 h 0.529167 0.529166 z m 2.116667,1.058333 V 21.960417 H 67.73333 67.204163 v 0.529166 0.529167 H 66.674997 66.14583 v 1.058333 1.058334 h 1.5875 1.5875 V 24.077083 23.01875 h -0.529167 -0.529166 z"
         style="fill:url(#linearGradient1697);fill-opacity:1;stroke:#ffffff;stroke-width:0.846667;stroke-linecap:square;stroke-linejoin:miter;stroke-miterlimit:4;stroke-dasharray:none;stroke-opacity:1;paint-order:markers stroke fill"
         id="path1592"
         inkscape:connector-curvature="0" />
      <path
         d="m 73.55416,24.60625 v -3.704167 h 1.058334 1.058333 v 3.175 3.175 h 2.116666 2.116667 v 0.529167 0.529166 h -3.175 -3.175 z"
         style="fill:url(#linearGradient1699);fill-opacity:1;stroke:#ffffff;stroke-width:0.846667;stroke-linecap:square;stroke-linejoin:miter;stroke-miterlimit:4;stroke-dasharray:none;stroke-opacity:1;paint-order:markers stroke fill"
         id="path1594"
         inkscape:connector-curvature="0" />
      <path
         d="m 82.020827,24.60625 v -3.704167 h 1.058334 1.058333 v 3.175 3.175 h 2.116667 2.116666 v 0.529167 0.529166 h -3.175 -3.175 z"
         style="fill:url(#linearGradient1701);fill-opacity:1;stroke:#ffffff;stroke-width:0.846667;stroke-linecap:square;stroke-linejoin:miter;stroke-miterlimit:4;stroke-dasharray:none;stroke-opacity:1;paint-order:markers stroke fill"
         id="path1596"
         inkscape:connector-curvature="0" />
      <path
         d="m 89.429161,24.60625 v -3.704167 h 3.704167 3.704166 v 0.529167 0.529167 h -2.645833 -2.645833 v 1.058333 1.058333 h 2.116666 2.116667 v 0.529167 0.529167 h -2.116667 -2.116666 v 1.058333 1.058333 h 2.645833 2.645833 v 0.529167 0.529166 h -3.704166 -3.704167 z"
         style="fill:url(#linearGradient1703);fill-opacity:1;stroke:#ffffff;stroke-width:0.846667;stroke-linecap:square;stroke-linejoin:miter;stroke-miterlimit:4;stroke-dasharray:none;stroke-opacity:1;paint-order:markers stroke fill"
         id="path1598"
         inkscape:connector-curvature="0" />
      <path
         d="m 97.895828,24.60625 v -3.704167 h 3.175002 3.175 v 0.529167 0.529167 h 0.52916 0.52917 v 1.5875 1.5875 h -1.05833 -1.05834 v 0.529166 0.529167 h 0.52917 0.52917 v 0.529166 0.529167 h 0.52916 0.52917 v 0.529167 0.529166 h -1.5875 -1.5875 V 27.78125 27.252083 h -0.52917 -0.52916 V 26.722916 26.19375 h -0.52917 -0.52916 v 1.058333 1.058333 h -1.058338 -1.058334 z m 5.291662,-1.5875 v -1.058333 h -1.5875 -1.58749 v 1.5875 1.5875 h 1.05833 1.05833 V 24.60625 24.077083 h 0.52917 0.52916 z"
         style="fill:url(#linearGradient1705);fill-opacity:1;stroke:#ffffff;stroke-width:0.846667;stroke-linecap:square;stroke-linejoin:miter;stroke-miterlimit:4;stroke-dasharray:none;stroke-opacity:1;paint-order:markers stroke fill"
         id="path1600"
         inkscape:connector-curvature="0" />
    </g>
  </g>
  <g
     style="display:inline;opacity:1"
     inkscape:label="inverse gradient"
     id="g1661"
     inkscape:groupmode="layer"
     transform="translate(0.26458241,-9.5249991)">
    <g
       id="g1659"
       style="font-style:normal;font-variant:normal;font-weight:normal;font-stretch:normal;font-size:8.46667px;line-height:6.61458px;font-family:'Press Start 2P';-inkscape-font-specification:'Press Start 2P';font-variant-ligatures:normal;font-variant-caps:normal;font-variant-numeric:normal;font-feature-settings:normal;text-align:center;letter-spacing:0px;word-spacing:0px;writing-mode:lr-tb;text-anchor:middle;fill:url(#linearGradient1609);fill-opacity:1;stroke:none;stroke-width:0.264583"
       aria-label="MOD INSTALLER"
       transform="matrix(1.25,0,0,1.2499999,-0.13229166,-2.579686)">
      <path
         style="fill:url(#linearGradient1727);fill-opacity:1;stroke-width:1"
         d="m 196,73.462891 a 240.15802,15.502043 0 0 0 -8,0.0625 V 74 h 2 2 v 2 2 h 8 8 v 4 4 h -6 -6 v -2 -2 h -4 -4 v 2 2 h 2 2 v 2 2 h 10 10 v -2 -2 h 2 2 v -4 -4 h -2 -2 v -2 -2 h -8 -8 z m 36,0.0078 V 78 90 h 4 4 V 78 73.507812 a 240.15802,15.502043 0 0 0 -8,-0.03711 z m -48,0.08594 a 240.15802,15.502043 0 0 0 -8,0.0625 V 74 h -2 -2 v -0.339844 a 240.15802,15.502043 0 0 0 -16,0.232422 V 76 90 h 4 4 v -6 -6 h 2 2 v 2 2 h 2 2 v 2 2 h 2 2 v 2 2 h 4 4 V 76 Z M 252,73.625 V 80 90 h 4 4 v -4 -4 h 6 6 v 4 4 h 4 4 V 80 74.017578 a 240.15802,15.502043 0 0 0 -8,-0.130859 V 74 78 h -6 -6 V 74 73.703125 A 240.15802,15.502043 0 0 0 252,73.625 Z m -108,0.484375 a 240.15802,15.502043 0 0 0 -8,0.171875 V 76 86 h -4 -4 v 2 2 h 12 12 v -2 -2 h -4 -4 V 76 Z m 144,0.06055 V 76 90 h 12 12 v -2 -2 h -8 -8 V 74.357422 a 240.15802,15.502043 0 0 0 -8,-0.1875 z m 32,0.845703 V 76 90 h 12 12 v -2 -2 h -8 -8 V 75.265625 a 240.15802,15.502043 0 0 0 -8,-0.25 z m -216,0.134766 a 240.15802,15.502043 0 0 0 -8,0.296875 V 76 82 h -2 -2 v 2 2 H 88 84 V 76 75.898438 a 240.15802,15.502043 0 0 0 -8,0.36914 V 90 h 10 10 v -2 -2 h 2 2 v -2 -2 h 2 2 v -6 z m 244,0.894531 V 90 h 14 14 v -2 -2 h -10 -10 v -4 -4 h 8 8 v -0.763672 a 240.15802,15.502043 0 0 0 -24,-1.191406 z m -276,0.40625 a 240.15802,15.502043 0 0 0 -8,0.380859 V 86 h -6 -6 v -8.488281 a 240.15802,15.502043 0 0 0 -8,0.492187 V 86 h 2 2 v 2 2 h 10 10 v -2 -2 h 2 2 z M 380,77.7168 V 90 h 4 4 v -4 -4 h 2 2 v 2 2 h 2 2 v 2 2 h 6 6 v -2 -2 h -2 -2 v -2 -2 h -2 -2 V 80 79.099609 A 240.15802,15.502043 0 0 0 380,77.716797 Z M 40,78.28125 a 240.15802,15.502043 0 0 0 -8,0.554688 V 84 90 h 4 4 z m -12,0.873047 a 240.15802,15.502043 0 0 0 -4,0.339844 V 80 82 h 2 2 v -2 z m -8,0.677734 a 240.15802,15.502043 0 0 0 -8,0.763672 V 90 h 4 4 v -6 z"
         transform="matrix(0.26458333,0,0,0.26458333,-2.6458333,4.4979162)"
         id="path1635"
         inkscape:connector-curvature="0" />
    </g>
    <g
       id="g1633"
       style="font-style:normal;font-variant:normal;font-weight:normal;font-stretch:normal;font-size:2.11667px;line-height:6.61458px;font-family:'Press Start 2P';-inkscape-font-specification:'Press Start 2P';font-variant-ligatures:normal;font-variant-caps:normal;font-variant-numeric:normal;font-feature-settings:normal;text-align:center;letter-spacing:0px;word-spacing:0px;writing-mode:lr-tb;text-anchor:middle;fill:url(#linearGradient1557);fill-opacity:1;stroke:none;stroke-width:0.264583"
       aria-label="ONE-CLICK"
       transform="matrix(1.25,0,0,1.2499999,-0.13229166,-2.579686)">
      <path
         style="font-size:8.46667px;fill:url(#linearGradient1709);fill-opacity:1;stroke-width:1"
         d="m 204,35.789062 a 213.71844,15.667357 0 0 0 -8,0.02148 V 36 42 h 2 2 v 2 2 h 2 2 v 2 2 h 8 8 v -2 -2 h 2 2 v -2 -2 h -4 -4 v 2 2 h -4 -4 v -2 -2 h -2 -2 v -6 z m -12,0.04883 a 213.71844,15.667357 0 0 0 -24,0.257812 V 38 h 12 12 v -2 z m 40,0.01953 V 36 50 h 12 12 v -2 -2 h -8 -8 V 35.947266 a 213.71844,15.667357 0 0 0 -8,-0.08984 z m -76,0.435547 a 213.71844,15.667357 0 0 0 -24,0.566406 V 50 h 14 14 v -2 -2 h -10 -10 v -4 -4 h 8 8 z m 116,0.15625 V 46 h -4 -4 v 2 2 h 12 12 v -2 -2 h -4 -4 v -9.345703 a 213.71844,15.667357 0 0 0 -8,-0.205078 z m 20,0.52539 V 42 h 2 2 v 2 2 h 2 2 v 2 2 h 8 8 v -2 -2 h 2 2 v -2 -2 h -4 -4 v 2 2 h -4 -4 v -2 -2 h -2 -2 v -4.753906 a 213.71844,15.667357 0 0 0 -8,-0.271485 z m -164,0.01563 a 213.71844,15.667357 0 0 0 -28,1.039063 V 50 h 4 4 v -6 -6 h 2 2 v 2 2 h 2 2 v 2 2 h 2 2 v 2 2 h 4 4 z m -32,1.207032 a 213.71844,15.667357 0 0 0 -8,0.40625 V 46 h -6 -6 v -6.751953 a 213.71844,15.667357 0 0 0 -8,0.515625 V 46 h 2 2 v 2 2 h 10 10 v -2 -2 h 2 2 z m 228,0.0078 V 50 h 4 4 v -4 -4 h 2 2 v 2 2 h 2 2 v 2 2 h 6 6 v -2 -2 h -2 -2 v -2 -2 h -2 -2 v -2 -0.753906 a 213.71844,15.667357 0 0 0 -20,-1.041016 z"
         transform="matrix(0.26458333,0,0,0.26458333,-2.6458333,4.4979162)"
         id="path1615"
         inkscape:connector-curvature="0" />
    </g>
  </g>
</svg>
